<?xml version="1.0" encoding="UTF-8"?>
<svg version="1.1" xmlns="http://www.w3.org/2000/svg" width="1200" height="1200">
<path d="M0 0 C396 0 792 0 1200 0 C1200 396 1200 792 1200 1200 C804 1200 408 1200 0 1200 C0 804 0 408 0 0 Z " fill="#F6F5F5" transform="translate(0,0)"/>
<path d="M0 0 C237.6 0 475.2 0 720 0 C720 4.62 720 9.24 720 14 C482.4 14 244.8 14 0 14 C0 9.38 0 4.76 0 0 Z " fill="#F73F52" transform="translate(240,788)"/>
<path d="M0 0 C29.04 0 58.08 0 88 0 C88 4.29 88 8.58 88 13 C86.02 13 84.04 13 82 13 C82 45.67 82 78.34 82 112 C83.98 112 85.96 112 88 112 C88 116.29 88 120.58 88 125 C58.96 125 29.92 125 0 125 C0 120.71 0 116.42 0 112 C1.98 112 3.96 112 6 112 C6 79.33 6 46.66 6 13 C4.02 13 2.04 13 0 13 C0 8.71 0 4.42 0 0 Z " fill="#F64255" transform="translate(556,430)"/>
<path d="M0 0 C89.1 0 178.2 0 270 0 C270 4.95 270 9.9 270 15 C180.9 15 91.8 15 0 15 C0 10.05 0 5.1 0 0 Z " fill="#F73F52" transform="translate(690,525)"/>
<path d="M0 0 C89.1 0 178.2 0 270 0 C270 4.95 270 9.9 270 15 C180.9 15 91.8 15 0 15 C0 10.05 0 5.1 0 0 Z " fill="#F73F52" transform="translate(240,525)"/>
<path d="M0 0 C4.95 0 9.9 0 15 0 C16.41734594 6.0513822 17.51113874 12.02785339 18.2890625 18.19140625 C18.45128799 19.43747902 18.45128799 19.43747902 18.61679077 20.70872498 C18.95667588 23.32617336 19.29093669 25.94430291 19.625 28.5625 C19.85639701 30.35226191 20.08816453 32.14197596 20.3203125 33.93164062 C20.88448732 38.28721959 21.44362416 42.64341822 22 47 C22.26478149 45.18411377 22.26478149 45.18411377 22.53491211 43.33154297 C23.19217754 38.82510584 23.85024259 34.31878577 24.50854492 29.8125 C24.79294169 27.86494054 25.0771238 25.91734972 25.36108398 23.96972656 C25.77010087 21.16463003 26.17989852 18.35964849 26.58984375 15.5546875 C26.71592514 14.68883026 26.84200653 13.82297302 26.97190857 12.93087769 C27.15198204 11.70028122 27.15198204 11.70028122 27.33569336 10.44482422 C27.4400621 9.72978729 27.54443085 9.01475037 27.65196228 8.27804565 C28.0741869 5.51441714 28.54039041 2.75765756 29 0 C34.28 0 39.56 0 45 0 C45 22.77 45 45.54 45 69 C41.37 69 37.74 69 34 69 C33.505 48.21 33.505 48.21 33 27 C31.77249481 35.95821168 31.77249481 35.95821168 30.54736328 44.91674805 C29.44196523 52.95718945 28.26166175 60.98258959 27 69 C23.7 69 20.4 69 17 69 C13.79305419 53.79130247 11.9946807 38.40718885 10 23 C9.67 38.18 9.34 53.36 9 69 C6.03 69 3.06 69 0 69 C0 46.23 0 23.46 0 0 Z " fill="#F64457" transform="translate(240,636)"/>
<path d="M0 0 C5.28 0 10.56 0 16 0 C16.21934204 1.6874231 16.21934204 1.6874231 16.44311523 3.40893555 C16.9874561 7.59308024 17.53404261 11.77692906 18.08129883 15.96069336 C18.3175865 17.76953297 18.55326974 19.57845165 18.78833008 21.38745117 C19.12681744 23.99158546 19.46749631 26.59542521 19.80859375 29.19921875 C19.91280136 30.00461594 20.01700897 30.81001312 20.12437439 31.63981628 C20.62685166 35.45962999 21.17781826 39.23249249 22 43 C24.27453846 37.28424171 24.81165088 31.4990958 25.5 25.4375 C25.75511373 23.29019819 26.01161427 21.14306066 26.26953125 18.99609375 C26.39279785 17.96597168 26.51606445 16.93584961 26.64306641 15.87451172 C27.30279866 10.56145597 28.14124254 5.28466131 29 0 C34.28 0 39.56 0 45 0 C45 22.77 45 45.54 45 69 C41.7 69 38.4 69 35 69 C34.67 53.16 34.34 37.32 34 21 C33.01 27.93 32.02 34.86 31 42 C30.27514565 46.93822178 29.54798484 51.87587995 28.8125 56.8125 C28.63525391 58.00552734 28.45800781 59.19855469 28.27539062 60.42773438 C27.8507822 63.28523429 27.42565868 66.14265638 27 69 C23.7 69 20.4 69 17 69 C14.69 53.16 12.38 37.32 10 21 C9.67 36.84 9.34 52.68 9 69 C6.03 69 3.06 69 0 69 C0 46.23 0 23.46 0 0 Z " fill="#F64154" transform="translate(445,636)"/>
<path d="M0 0 C4.70275539 1.96900413 6.73303208 4.49504564 8.85379028 9.02658081 C10.30427553 13.29222805 10.20163907 17.50708632 10.1484375 21.97265625 C10.14989273 22.96575302 10.15134796 23.95884979 10.15284729 24.98204041 C10.15119536 27.0704951 10.13971384 29.15896286 10.11889648 31.24731445 C10.08989674 34.43168139 10.09831236 37.61438525 10.11132812 40.79882812 C10.105091 42.83594553 10.09670026 44.87305773 10.0859375 46.91015625 C10.08887314 47.85512466 10.09180878 48.80009308 10.09483337 49.7736969 C10.00663847 55.99401112 9.36779221 61.22111975 5.15234375 66.1171875 C-0.85688076 70.65540393 -5.97457534 71.14500702 -13.34765625 70.375 C-17.32940191 68.38412717 -20.06809822 66.21425564 -22.34765625 62.375 C-23.2733614 59.38094944 -23.4881799 56.64370666 -23.5246582 53.51806641 C-23.53749344 52.55671783 -23.55032867 51.59536926 -23.56355286 50.60488892 C-23.57093979 49.5725412 -23.57832672 48.54019348 -23.5859375 47.4765625 C-23.59400925 46.40884613 -23.60208099 45.34112976 -23.61039734 44.24105835 C-23.62421825 41.98331314 -23.6349493 39.72554722 -23.64282227 37.46777344 C-23.66005738 34.01978002 -23.70396506 30.57274011 -23.74804688 27.125 C-23.7581724 24.92969454 -23.76668894 22.73438094 -23.7734375 20.5390625 C-23.79094559 19.51076324 -23.80845367 18.48246399 -23.82649231 17.42300415 C-23.8082584 11.39200504 -23.35104169 7.97346471 -19.34765625 3.375 C-13.73940494 -1.82289146 -7.14171674 -1.90128898 0 0 Z " fill="#F64356" transform="translate(525.34765625,635.625)"/>
<path d="M0 0 C4.94586526 2.29629459 7.30760518 5.31323865 10 10 C10.9219195 12.7657585 11.14038598 14.48553378 11.17700195 17.34448242 C11.19625481 18.65681099 11.19625481 18.65681099 11.21589661 19.99565125 C11.22328354 20.93939102 11.23067047 21.8831308 11.23828125 22.85546875 C11.246353 23.83107254 11.25442474 24.80667633 11.26274109 25.81184387 C11.27657531 27.8788577 11.28730042 29.9458943 11.29516602 32.01293945 C11.31233981 35.15816208 11.3562277 38.30232273 11.40039062 41.44726562 C11.41052143 43.45832563 11.41903632 45.46939454 11.42578125 47.48046875 C11.44328934 48.41408737 11.46079742 49.34770599 11.47883606 50.30961609 C11.45893231 56.36902271 10.46483304 60.95005692 7 66 C1.88474537 70.86573002 -2.4435016 71.34827674 -9.26953125 71.28515625 C-14.06257952 70.7845947 -16.72900246 68.44630755 -19.8125 64.9375 C-21.81550996 61.66943112 -22.12845393 58.98358872 -22.14526367 55.24072266 C-22.15164352 54.27607086 -22.15802338 53.31141907 -22.16459656 52.3175354 C-22.16570938 51.27688934 -22.1668222 50.23624329 -22.16796875 49.1640625 C-22.17296135 47.55680801 -22.17296135 47.55680801 -22.17805481 45.91708374 C-22.18311996 43.64915395 -22.18546326 41.38121669 -22.18530273 39.11328125 C-22.18748696 35.64570811 -22.205641 32.17845424 -22.22460938 28.7109375 C-22.22754383 26.50781359 -22.22952828 24.30468817 -22.23046875 22.1015625 C-22.24124702 20.54666611 -22.24124702 20.54666611 -22.25224304 18.96035767 C-22.2476281 17.50392349 -22.2476281 17.50392349 -22.24291992 16.01806641 C-22.24434494 15.16773834 -22.24576996 14.31741028 -22.24723816 13.4413147 C-21.89384652 9.95180396 -20.9701652 7.04398212 -18.5625 4.453125 C-12.2769986 -0.38671108 -7.88421396 -0.73269528 0 0 Z " fill="#F64355" transform="translate(721,635)"/>
<path d="M0 0 C24.69174312 0 24.69174312 0 30.34765625 5.12890625 C32.64807814 9.12609322 32.55214954 12.40699408 32.4375 16.9375 C32.44458984 17.72318359 32.45167969 18.50886719 32.45898438 19.31835938 C32.39472132 25.22561679 31.3225421 29.6774579 27 34 C28.2065625 35.3921875 28.2065625 35.3921875 29.4375 36.8125 C32.78323628 40.67296494 33.14478322 43.95436587 33.31640625 48.98046875 C33.35830078 50.14384766 33.40019531 51.30722656 33.44335938 52.50585938 C33.48267578 53.72080078 33.52199219 54.93574219 33.5625 56.1875 C33.62727539 58.02731445 33.62727539 58.02731445 33.69335938 59.90429688 C33.79953014 62.93606192 33.90027764 65.968016 34 69 C30.04 69 26.08 69 22 69 C21.97421875 67.24171875 21.9484375 65.4834375 21.921875 63.671875 C21.86559898 61.36455834 21.80825154 59.05726763 21.75 56.75 C21.73582031 55.59113281 21.72164063 54.43226563 21.70703125 53.23828125 C21.67480469 52.12324219 21.64257812 51.00820313 21.609375 49.859375 C21.58842773 48.83295898 21.56748047 47.80654297 21.54589844 46.74902344 C20.8498009 43.24363067 19.87905223 42.08980933 17 40 C15.02 39.67 13.04 39.34 11 39 C11 48.9 11 58.8 11 69 C7.37 69 3.74 69 0 69 C0 46.23 0 23.46 0 0 Z " fill="#F64355" transform="translate(377,636)"/>
<path d="M0 0 C4.62 0 9.24 0 14 0 C17 12 20 24 23 36 C23.33 24.12 23.66 12.24 24 0 C27.3 0 30.6 0 34 0 C34 22.77 34 45.54 34 69 C30.37 69 26.74 69 23 69 C19.36940972 58.22068108 16.53922821 47.33566836 13.96826172 36.25610352 C13.7260791 35.21510498 13.48389648 34.17410645 13.234375 33.1015625 C13.02006836 32.16650879 12.80576172 31.23145508 12.58496094 30.26806641 C12.08151136 27.98829842 12.08151136 27.98829842 11 26 C10.67 40.19 10.34 54.38 10 69 C6.7 69 3.4 69 0 69 C0 46.23 0 23.46 0 0 Z " fill="#F64356" transform="translate(790,636)"/>
<path d="M0 0 C4.62 0 9.24 0 14 0 C18.11143341 12.49243228 20.98819346 25.19982219 24 38 C24.33 25.46 24.66 12.92 25 0 C27.97 0 30.94 0 34 0 C34 22.77 34 45.54 34 69 C30.37 69 26.74 69 23 69 C20.59090988 60.0296821 18.22094616 51.04953316 15.875 42.0625 C15.62153809 41.0923999 15.36807617 40.1222998 15.10693359 39.12280273 C14.86281738 38.18637939 14.61870117 37.24995605 14.3671875 36.28515625 C14.15175293 35.45894775 13.93631836 34.63273926 13.71435547 33.78149414 C12.79248764 30.19200673 11.89883127 26.59532509 11 23 C10.67 38.18 10.34 53.36 10 69 C6.7 69 3.4 69 0 69 C0 46.23 0 23.46 0 0 Z " fill="#F64355" transform="translate(743,636)"/>
<path d="M0 0 C4.29 0 8.58 0 13 0 C14.10714944 3.74914165 15.2107766 7.4992636 16.3125 11.25 C16.7755957 12.81621094 16.7755957 12.81621094 17.24804688 14.4140625 C17.55419922 15.45820312 17.86035156 16.50234375 18.17578125 17.578125 C18.45333252 18.52075195 18.73088379 19.46337891 19.0168457 20.43457031 C20.44051664 25.59754285 21.70106097 30.80424387 23 36 C23.33 24.12 23.66 12.24 24 0 C27.3 0 30.6 0 34 0 C34 22.77 34 45.54 34 69 C30.04 69 26.08 69 22 69 C20.93043983 65.0397472 19.86459978 61.07851473 18.80175781 57.11645508 C18.44202702 55.77733333 18.08139338 54.43845369 17.71972656 53.09985352 C14.93059593 42.77305841 12.45186328 32.42041894 10 22 C9.67 37.51 9.34 53.02 9 69 C6.03 69 3.06 69 0 69 C0 46.23 0 23.46 0 0 Z " fill="#F64255" transform="translate(547,636)"/>
<path d="M0 0 C5.28 0 10.56 0 16 0 C17.10485619 6.57923049 18.20746493 13.15883249 19.30810547 19.73876953 C19.68185576 21.97129171 20.0561912 24.20371602 20.43115234 26.43603516 C26.12796962 60.35868309 26.12796962 60.35868309 26 69 C22.7 69 19.4 69 16 69 C14.4087311 64.126739 13.78807779 60.19209404 14 55 C9.71 55 5.42 55 1 55 C0.67 59.62 0.34 64.24 0 69 C-3.3 69 -6.6 69 -10 69 C-10.1899717 62.46890402 -9.54530688 56.68680165 -8.1875 50.3125 C-6.6710573 42.81538956 -5.41858423 35.3357646 -4.4375 27.75 C-3.2316772 18.43671427 -1.70140275 9.23618638 0 0 Z " fill="#F64457" transform="translate(305,636)"/>
<path d="M0 0 C4.89594362 2.27311668 7.79186259 5.074155 10 10 C10.32428683 14.68646773 10.23125266 19.31071004 10 24 C6.7 24 3.4 24 0 24 C-0.06058594 23.22914063 -0.12117187 22.45828125 -0.18359375 21.6640625 C-0.30927734 20.15972656 -0.30927734 20.15972656 -0.4375 18.625 C-0.51871094 17.62726562 -0.59992187 16.62953125 -0.68359375 15.6015625 C-0.84965626 13.02072387 -0.84965626 13.02072387 -2 11 C-4.33294775 10.95758277 -6.66702567 10.95907063 -9 11 C-10.21480284 11.99411455 -10.21480284 11.99411455 -10.12025452 13.94252014 C-10.11803391 14.79301437 -10.11581329 15.64350861 -10.11352539 16.51977539 C-10.11344986 17.48069595 -10.11337433 18.44161652 -10.11329651 19.43165588 C-10.10813522 20.476436 -10.10297394 21.52121613 -10.09765625 22.59765625 C-10.09553383 24.19364906 -10.09553383 24.19364906 -10.09336853 25.82188416 C-10.08775064 29.23545083 -10.07519511 32.648953 -10.0625 36.0625 C-10.05748731 38.37044176 -10.052924 40.67838455 -10.04882812 42.98632812 C-10.0377754 48.65757426 -10.02101987 54.32878253 -10 60 C-6.58343976 60.16677282 -6.58343976 60.16677282 -3 60 C-0.14206684 57.14206684 -0.59200059 54.85334416 -0.375 50.875 C-0.30023437 49.59367188 -0.22546875 48.31234375 -0.1484375 46.9921875 C-0.09945312 46.00476563 -0.05046875 45.01734375 0 44 C3.3 44 6.6 44 10 44 C10.74885845 61.32775241 10.74885845 61.32775241 6 67 C1.60240983 70.99780924 -2.68949187 71.34824316 -8.42578125 71.28125 C-12.54674561 70.83100807 -14.68650676 69.50202551 -18 67 C-21.25971047 62.65371937 -22.11165388 58.68599608 -22.17700195 53.3425293 C-22.18983719 52.42444992 -22.20267242 51.50637054 -22.21589661 50.56047058 C-22.22328354 49.57500748 -22.23067047 48.58954437 -22.23828125 47.57421875 C-22.246353 46.55326614 -22.25442474 45.53231354 -22.26274109 44.48042297 C-22.27656108 42.32103158 -22.28729254 40.16161853 -22.29516602 38.00219727 C-22.3123822 34.71002607 -22.35628831 31.41885849 -22.40039062 28.12695312 C-22.41051795 26.02604903 -22.41903393 23.92513642 -22.42578125 21.82421875 C-22.44328934 20.84482834 -22.46079742 19.86543793 -22.47883606 18.85636902 C-22.45933442 12.67347728 -21.61857362 9.05637898 -18 4 C-12.81422788 -1.05612782 -6.8480068 -0.92184707 0 0 Z " fill="#F64255" transform="translate(678,635)"/>
<path d="M0 0 C3.40920514 2.411389 5.69634878 5.08019755 7.5625 8.8125 C7.63366382 11.18652501 7.64659085 13.56250677 7.625 15.9375 C7.61597656 17.21882812 7.60695313 18.50015625 7.59765625 19.8203125 C7.58605469 20.80773437 7.57445312 21.79515625 7.5625 22.8125 C4.2625 22.8125 0.9625 22.8125 -2.4375 22.8125 C-2.49808594 22.04164063 -2.55867187 21.27078125 -2.62109375 20.4765625 C-2.74677734 18.97222656 -2.74677734 18.97222656 -2.875 17.4375 C-2.95621094 16.43976562 -3.03742187 15.44203125 -3.12109375 14.4140625 C-3.28715626 11.83322387 -3.28715626 11.83322387 -4.4375 9.8125 C-6.7475 9.8125 -9.0575 9.8125 -11.4375 9.8125 C-12.60569006 12.14888011 -12.57018832 13.5358888 -12.58276367 16.13867188 C-12.58914352 17.03299927 -12.59552338 17.92732666 -12.60209656 18.84875488 C-12.60320938 19.81647827 -12.6043222 20.78420166 -12.60546875 21.78125 C-12.60879715 22.77249878 -12.61212555 23.76374756 -12.61555481 24.78503418 C-12.62062293 26.88321467 -12.62296317 28.98140324 -12.62280273 31.07958984 C-12.62499102 34.29928768 -12.64315295 37.518644 -12.66210938 40.73828125 C-12.66504288 42.77343632 -12.66702796 44.80859303 -12.66796875 46.84375 C-12.67515427 47.81147339 -12.68233978 48.77919678 -12.68974304 49.77624512 C-12.68666641 50.67057251 -12.68358978 51.5648999 -12.68041992 52.48632812 C-12.68184494 53.27527466 -12.68326996 54.06422119 -12.68473816 54.8770752 C-12.60771201 57.05015915 -12.60771201 57.05015915 -10.4375 58.8125 C-8.1275 58.8125 -5.8175 58.8125 -3.4375 58.8125 C-3.1075 53.5325 -2.7775 48.2525 -2.4375 42.8125 C0.8625 42.8125 4.1625 42.8125 7.5625 42.8125 C7.67111833 45.52192393 7.75008577 48.226939 7.8125 50.9375 C7.86277344 52.07832031 7.86277344 52.07832031 7.9140625 53.2421875 C8.00660463 58.60963103 7.09507628 61.53553611 3.5625 65.8125 C-0.91751133 69.74947966 -5.08269969 70.17931138 -10.8671875 70.078125 C-14.90311774 69.66103798 -17.47567665 68.57308339 -20.4375 65.8125 C-24.40042373 59.5201872 -25.03181528 53.43210885 -24.96875 46.15234375 C-24.9725769 45.1630336 -24.97640381 44.17372345 -24.98034668 43.1544342 C-24.98305263 41.07617161 -24.97578441 38.99787419 -24.95898438 36.91967773 C-24.93753334 33.75491893 -24.95884341 30.59242406 -24.984375 27.42773438 C-24.98173194 25.39843254 -24.9766074 23.3691321 -24.96875 21.33984375 C-24.97684692 20.40317368 -24.98494385 19.4665036 -24.99328613 18.50144958 C-24.88845411 11.09090601 -23.25809877 5.56430367 -17.875 0.3125 C-11.93586221 -2.27912376 -6.08884749 -2.10342004 0 0 Z " fill="#F64355" transform="translate(900.4375,636.1875)"/>
<path d="M0 0 C9.57 0 19.14 0 29 0 C29 3.3 29 6.6 29 10 C23.06 10 17.12 10 11 10 C11 15.94 11 21.88 11 28 C15.95 28 20.9 28 26 28 C26 31.3 26 34.6 26 38 C21.05 38 16.1 38 11 38 C11 44.93 11 51.86 11 59 C16.94 59 22.88 59 29 59 C29 62.3 29 65.6 29 69 C19.43 69 9.86 69 0 69 C0 46.23 0 23.46 0 0 Z " fill="#F64457" transform="translate(837,636)"/>
<path d="M0 0 C3.96 0 7.92 0 12 0 C13.00319394 3.45743626 14.00269131 6.91586626 15 10.375 C15.28617188 11.35984375 15.57234375 12.3446875 15.8671875 13.359375 C16.13789062 14.30039062 16.40859375 15.24140625 16.6875 16.2109375 C16.93886719 17.08024902 17.19023438 17.94956055 17.44921875 18.84521484 C18 21 18 21 18 23 C18.66 23 19.32 23 20 23 C20.14695312 22.14341797 20.14695312 22.14341797 20.296875 21.26953125 C21.63894089 13.99229466 23.72801206 7.03654517 26 0 C29.63 0 33.26 0 37 0 C36.64172119 0.9887915 36.28344238 1.97758301 35.91430664 2.99633789 C27.89629052 25.38535364 23.11047089 45.15377738 24 69 C20.37 69 16.74 69 13 69 C13.04882324 67.83658081 13.04882324 67.83658081 13.09863281 66.6496582 C13.85161074 42.51741945 8.4479042 22.47708624 0 0 Z " fill="#F64254" transform="translate(590,636)"/>
<path d="M0 0 C11.22 0 22.44 0 34 0 C34 3.3 34 6.6 34 10 C30.37 10 26.74 10 23 10 C23 29.47 23 48.94 23 69 C19.37 69 15.74 69 12 69 C12 49.53 12 30.06 12 10 C8.04 10 4.08 10 0 10 C0 6.7 0 3.4 0 0 Z " fill="#F64557" transform="translate(916,636)"/>
<path d="M0 0 C11.22 0 22.44 0 34 0 C34 3.3 34 6.6 34 10 C30.04 10 26.08 10 22 10 C22 29.47 22 48.94 22 69 C18.37 69 14.74 69 11 69 C11 49.53 11 30.06 11 10 C7.37 10 3.74 10 0 10 C0 6.7 0 3.4 0 0 Z " fill="#F64356" transform="translate(334,636)"/>
<path d="M0 0 C1.01430449 6.33774567 1.91566168 12.75745275 0 19 C-3.63319633 23.90914027 -9.35153348 26.68179901 -14.58789062 29.60400391 C-18.47271591 31.85232688 -22.05655046 34.4933982 -25.6875 37.125 C-27.08741114 38.11358202 -28.48844227 39.1005801 -29.890625 40.0859375 C-32.64368934 42.03134932 -35.38178807 43.99559692 -38.109375 45.9765625 C-38.75559814 46.44433105 -39.40182129 46.91209961 -40.06762695 47.39404297 C-41.28526425 48.27702476 -42.50010374 49.16388187 -43.71166992 50.05517578 C-47.77772224 53 -47.77772224 53 -50 53 C-51.96126869 37.6115841 -51.96126869 37.6115841 -47.7734375 32.03515625 C-44.95536491 29.89128077 -42.15612709 28.02982055 -39.10107422 26.25439453 C-36.01522953 24.41206708 -33.0968785 22.34673771 -30.14916992 20.29296875 C-27.74538692 18.62179286 -25.32450286 16.97846565 -22.8984375 15.33984375 C-17.25984805 11.51502687 -11.70591051 7.5733512 -6.16699219 3.60595703 C-1.10518357 0 -1.10518357 0 0 0 Z " fill="#F6F3F3" transform="translate(625,447)"/>
<path d="M0 0 C2.34373756 15.70629683 2.34373756 15.70629683 -1.24804688 20.75390625 C-4.88331273 24.05869339 -9.22598222 26.28495744 -13.53076172 28.59863281 C-18.00791867 31.1395544 -22.1293342 34.19580461 -26.3125 37.1875 C-28.0045893 38.37197856 -29.6972799 39.55559869 -31.390625 40.73828125 C-35.99947504 43.98081572 -40.52751834 47.31864603 -45.00390625 50.7421875 C-47 52 -47 52 -50 52 C-50.95057192 45.99951477 -51.8066847 39.91079049 -50 34 C-46.6040553 29.44521315 -41.20207742 26.96638898 -36.30517578 24.30957031 C-32.50593204 22.15122002 -29.02976859 19.56732791 -25.5 17 C-24.09544353 16.00281866 -22.68918688 15.00802778 -21.28125 14.015625 C-20.58257813 13.52255859 -19.88390625 13.02949219 -19.1640625 12.52148438 C-15.45471969 9.91356195 -11.73089338 7.32697415 -8 4.75 C-6.96649414 4.03263672 -6.96649414 4.03263672 -5.91210938 3.30078125 C-1.11765115 0 -1.11765115 0 0 0 Z " fill="#F6F2F3" transform="translate(625,491)"/>
<path d="M0 0 C3.3 0 6.6 0 10 0 C10 22.77 10 45.54 10 69 C6.7 69 3.4 69 0 69 C0 46.23 0 23.46 0 0 Z " fill="#F73F52" transform="translate(422,636)"/>
<path d="M0 0 C2.0634492 1.55533889 2.89416551 2.44318408 3.38095093 5.0042572 C3.38333771 5.76718582 3.38572449 6.53011444 3.38818359 7.31616211 C3.39764008 8.18393784 3.40709656 9.05171356 3.4168396 9.94578552 C3.41076691 10.88019974 3.40469421 11.81461395 3.3984375 12.77734375 C3.40274277 14.22168541 3.40274277 14.22168541 3.40713501 15.69520569 C3.4091768 17.73194974 3.40363895 19.76871336 3.39111328 21.80541992 C3.37507892 24.92215924 3.39094929 28.0375983 3.41015625 31.15429688 C3.4081735 33.13281536 3.40432915 35.11133304 3.3984375 37.08984375 C3.40754654 38.48842873 3.40754654 38.48842873 3.4168396 39.91526794 C3.34720966 46.32808149 3.34720966 46.32808149 1.66259766 49.58813477 C0 51 0 51 -3 51.5 C-6 51 -6 51 -7.66259766 49.58813477 C-9.75395857 45.54094289 -9.42768306 41.58015343 -9.3984375 37.08984375 C-9.40130768 36.12599258 -9.40417786 35.16214142 -9.40713501 34.16908264 C-9.40917433 32.13411877 -9.40365371 30.09913524 -9.39111328 28.06420898 C-9.37504049 24.94535662 -9.39097566 21.82779675 -9.41015625 18.70898438 C-9.40817414 16.73176797 -9.40433113 14.75455237 -9.3984375 12.77734375 C-9.40451019 11.84292953 -9.41058289 10.90851532 -9.4168396 9.94578552 C-9.40738312 9.0780098 -9.39792664 8.21023407 -9.38818359 7.31616211 C-9.38579681 6.55323349 -9.38341003 5.79030487 -9.38095093 5.0042572 C-8.39060167 -0.20616358 -4.68414095 -0.58551762 0 0 Z " fill="#F6EAEB" transform="translate(718,645)"/>
<path d="M0 0 C3.0625 0.3125 3.0625 0.3125 4.72964478 1.56227112 C6.39219199 3.74543257 6.44216032 4.90421748 6.45068359 7.62866211 C6.46014008 8.49643784 6.46959656 9.36421356 6.4793396 10.25828552 C6.47326691 11.19269974 6.46719421 12.12711395 6.4609375 13.08984375 C6.46524277 14.53418541 6.46524277 14.53418541 6.46963501 16.00770569 C6.4716768 18.04444974 6.46613895 20.08121336 6.45361328 22.11791992 C6.43757892 25.23465924 6.45344929 28.3500983 6.47265625 31.46679688 C6.4706735 33.44531536 6.46682915 35.42383304 6.4609375 37.40234375 C6.47004654 38.80092873 6.47004654 38.80092873 6.4793396 40.22776794 C6.40974277 46.63753176 6.40974277 46.63753176 4.72900391 49.90454102 C3.0625 51.3125 3.0625 51.3125 0 51.75 C-0.969375 51.605625 -1.93875 51.46125 -2.9375 51.3125 C-5.04472094 48.15166859 -5.18914697 47.39198656 -5.19628906 43.78100586 C-5.20259338 42.86673325 -5.20889771 41.95246063 -5.21539307 41.01048279 C-5.2113446 40.02604691 -5.20729614 39.04161102 -5.203125 38.02734375 C-5.20503845 37.01531387 -5.2069519 36.003284 -5.20892334 34.96058655 C-5.21028447 32.82129671 -5.20659308 30.68199859 -5.19824219 28.54272461 C-5.18753072 25.25941528 -5.19814577 21.97665176 -5.2109375 18.69335938 C-5.20961611 16.61718629 -5.20705414 14.54101354 -5.203125 12.46484375 C-5.20717346 11.47838364 -5.21122192 10.49192352 -5.21539307 9.47557068 C-5.20908875 8.56445023 -5.20278442 7.65332977 -5.19628906 6.71459961 C-5.19469788 5.91090439 -5.19310669 5.10720917 -5.19146729 4.27915955 C-4.74257949 0.80308397 -3.30780696 0.35189436 0 0 Z " fill="#F6F3F3" transform="translate(517.9375,644.6875)"/>
<path d="M0 0 C3.933053 1.60645827 6.60558942 3.40838413 9 7 C9.23046875 9.41015625 9.23046875 9.41015625 9.1875 12.0625 C9.18105469 12.94035156 9.17460938 13.81820313 9.16796875 14.72265625 C9 17 9 17 8 19 C0.74 19 -6.52 19 -14 19 C-15.85832776 15.28334448 -15.57993204 11.0467785 -15 7 C-10.74565691 1.48085221 -6.96365518 -0.69636552 0 0 Z " fill="#F64457" transform="translate(603,405)"/>
<path d="M0 0 C8 0 8 0 9.9765625 1.65625 C11.19078211 4.4369056 11.399983 6.46872986 11.375 9.5 C11.38273437 10.4384375 11.39046875 11.376875 11.3984375 12.34375 C10.91462575 15.56916164 10.51813745 16.88994016 8 19 C5.36 19 2.72 19 0 19 C0 12.73 0 6.46 0 0 Z " fill="#F6EFF0" transform="translate(388,646)"/>
<path d="M0 0 C0.33 0 0.66 0 1 0 C1.6776274 3.83147834 2.34009767 7.66543241 3 11.5 C3.28617187 13.11648438 3.28617187 13.11648438 3.578125 14.765625 C4.57450765 20.60158054 5.22990081 26.08005402 5 32 C2.03 32 -0.94 32 -4 32 C-2 9.08510638 -2 9.08510638 0 0 Z " fill="#F6ECED" transform="translate(312,650)"/>
<path d="M0 0 C6.27 0 12.54 0 19 0 C13.37081459 5.62918541 13.37081459 5.62918541 10.703125 7.45703125 C10.13722656 7.84697266 9.57132813 8.23691406 8.98828125 8.63867188 C8.41464844 9.02603516 7.84101562 9.41339844 7.25 9.8125 C6.66089844 10.21919922 6.07179688 10.62589844 5.46484375 11.04492188 C1.14397321 14 1.14397321 14 0 14 C0 9.38 0 4.76 0 0 Z " fill="#F6F2F2" transform="translate(575,443)"/>
<path d="M0 0 C0 2.64 0 5.28 0 8 C-3.96 8 -7.92 8 -12 8 C-4 0 -4 0 0 0 Z " fill="#F6DBDD" transform="translate(625,535)"/>
</svg>
